<svg xmlns="http://www.w3.org/2000/svg" viewBox="0 0 48 48" width="48" height="48">
  <rect width="48" height="48" rx="8" fill="#0a1628"/>
  <g transform="translate(6, 5)" fill="none" stroke="#00d4ff" stroke-width="2.8" stroke-linecap="round" stroke-linejoin="round">
    <path d="M3 31c1 .8 2 1.5 4 1.5 3.5 0 3.5-3 7-3 2 0 3 .7 4 1.5 1 .8 2 1.5 4 1.5 3.5 0 3.5-3 7-3 2 0 3 .7 4 1.5"/>
    <path d="M29 29.5A17 17 0 0 0 31.5 20L18 14 4.5 20a17 17 0 0 0 4 11.5"/>
    <path d="M28 19V10a3 3 0 0 0-3-3H11a3 3 0 0 0-3 3v9"/>
    <path d="M18 14v6"/>
  </g>
</svg>
